<?xml version="1.0" encoding="utf-8"?>
<!-- Generator: Adobe Illustrator 22.1.0, SVG Export Plug-In . SVG Version: 6.00 Build 0)  -->
<svg version="1.1" id="Layer_1" xmlns="http://www.w3.org/2000/svg" xmlns:xlink="http://www.w3.org/1999/xlink" x="0px" y="0px"
	 viewBox="0 0 543 215" style="enable-background:new 0 0 543 215;" xml:space="preserve">
<style type="text/css">
	.st0{fill:#14325C;}
	.st1{enable-background:new    ;}
	.st2{opacity:0.8;fill:#5398D9;enable-background:new    ;}
</style>
<g>
	<path class="st0" d="M195.2,143.9c-5.4-2.5-9.2-6.8-11.6-12.7c-2.4-5.9-3.5-13.9-3.2-23.9l1.1-48.1h-17.8V39.1l18.8-5.1l4.2-31.8
		h24.8V34h26.7v25.2h-26.7v47.9c0,5.6,1,9.6,3,11.9s4.7,3.7,8.3,4.2l14.4,1.3v23.3h-20.5C207.7,147.7,200.6,146.5,195.2,143.9z"/>
	<path class="st0" d="M261.7,143.5c-7.3-3.4-12.7-9.2-16-17.6c-3.3-8.3-5-20-5-35.1c0-15.5,1.6-27.5,4.7-35.9
		c3.1-8.4,8.2-14.3,15.4-17.7c7.1-3.4,17.2-5.1,30.2-5.1c11.6,0,20.7,1.1,27.3,3.4c6.6,2.3,11.5,6.2,14.5,11.9
		c3,5.6,4.6,13.6,4.6,23.9c0,11-3.1,18.8-9.4,23.5s-15.4,7-27.4,7H272c0.3,6.1,1.2,10.8,2.8,14.1c1.6,3.3,4.3,5.7,8.3,7.2
		s9.7,2.2,17.4,2.2h33.2v18.4c-7.5,1.6-14.3,2.8-20.3,3.6c-6.1,0.8-13.1,1.3-21.2,1.3C279.1,148.6,269,146.9,261.7,143.5z
		 M297.3,83.1c4.4,0,7.5-0.9,9.4-2.6c1.9-1.8,2.9-4.8,2.9-9c0-6.2-1.4-10.5-4.2-13c-2.8-2.5-7.6-3.7-14.4-3.7
		c-4.9,0-8.8,0.8-11.5,2.4c-2.8,1.6-4.8,4.5-6,8.6c-1.3,4.1-1.9,9.9-1.9,17.4h25.7V83.1z"/>
	<path class="st0" d="M334.1,34.4h32.4l24.6,84.7l25.2-84.7h32l-39.8,113.7h-36.2L334.1,34.4z"/>
	<path class="st0" d="M468.7,147.6c-8.5-0.9-15.1-2.1-19.6-3.7v-18.4h50.4c4.7,0,8-0.6,10-1.9s3-3.7,3-7.4v-3.6c0-3-1-5.2-2.9-6.7
		s-5.3-2.2-10.1-2.2h-17.8c-10.6,0-19-2.4-25.2-7.3s-9.3-12.7-9.3-23.6v-6.6c0-11.3,3.4-19.7,10.3-25.1c6.8-5.4,18.7-8.2,35.5-8.2
		c6.9,0,14.5,0.5,22.7,1.6s14.4,2.3,18.6,3.7v18.4h-47.6c-4.4,0-7.6,0.7-9.5,2.1c-2,1.4-3,3.9-3,7.4v3.4c0,3.5,1.1,5.9,3.2,7.1
		s5.6,1.8,10.6,1.8h18.2c11.3,0,19.7,2.6,25.1,7.7c5.4,5.2,8.2,12.5,8.2,22.1v10.2c0,11.2-3.8,19-11.4,23.6
		c-7.6,4.6-19.2,6.9-34.7,6.9C485.4,149,477.2,148.5,468.7,147.6z"/>
</g>
<g class="st1">
	<path class="st0" d="M302.3,211c-2.3-1.2-4.1-3.3-5.5-6.4c-1.3-3.1-2-7.3-2-12.8c0-5.5,0.6-9.8,1.9-12.8c1.3-3.1,3.1-5.2,5.4-6.3
		c2.3-1.2,5.2-1.7,8.7-1.7c4.4,0,8.7,0.2,13.1,0.6v2h-12.6c-3,0-5.4,0.5-7.3,1.5c-1.9,1-3.4,2.9-4.4,5.5c-1.1,2.7-1.6,6.5-1.6,11.4
		c0,6.9,1.1,11.6,3.4,14.2c2.3,2.6,5.6,3.9,9.9,3.9h13.3v1.9c-5.3,0.5-9.9,0.7-13.8,0.7C307.4,212.8,304.6,212.2,302.3,211z"/>
	<path class="st0" d="M331.2,171.3h2.3l0.8,7.6c2.3-2.6,4.6-4.6,7.2-6c2.5-1.4,5.3-2.1,8.3-2.1c1.6,0,2.9,0.2,4,0.5v3.2
		c-1.3-0.3-2.7-0.4-4.2-0.4c-2.9,0-5.5,0.6-7.7,1.7c-2.2,1.1-4.7,2.9-7.6,5.5v31.1h-3.2V171.3z"/>
	<path class="st0" d="M364.6,210.8c-2.3-1.3-4-3.5-5-6.5c-1-3-1.5-7.2-1.5-12.6c0-5.4,0.5-9.6,1.6-12.6s2.8-5.1,5.2-6.4
		c2.4-1.3,5.7-1.9,9.9-1.9c5.2,0,9.1,1,11.4,3c2.4,2,3.6,5.4,3.6,10.3c0,6.2-3.6,9.2-10.9,9.2h-17.6c0,4.3,0.4,7.6,1.1,10
		c0.7,2.4,2.1,4.1,4.1,5.2c2,1.1,4.8,1.6,8.6,1.6h13.9v1.9c-5,0.5-9.8,0.7-14.4,0.7C370.2,212.8,366.9,212.1,364.6,210.8z
		 M378.7,190.9c2.8,0,4.9-0.5,6.2-1.5c1.3-1,1.9-2.8,1.9-5.4c0-2.8-0.4-4.9-1.2-6.5c-0.8-1.5-2.1-2.6-3.8-3.3c-1.7-0.6-4.1-1-7.1-1
		c-3.6,0-6.3,0.5-8.2,1.5s-3.2,2.7-4,5.2c-0.8,2.5-1.2,6.1-1.2,10.8H378.7z"/>
	<path class="st0" d="M398.7,210c-1.9-1.8-2.9-4.3-2.9-7.5V200c0-3.3,1.1-6,3.2-7.9c2.2-2,5.2-2.9,9.2-2.9h15.8v-6.3
		c0-3.1-0.8-5.5-2.5-7.1s-4.7-2.4-9-2.4h-13v-1.9c5.2-0.5,9.9-0.7,14-0.7c4.8,0,8.3,1,10.4,3s3.3,5,3.3,9.1v29.6h-2.3l-0.8-4.9
		c-0.3,0.2-1.5,0.8-3.6,1.7c-2.1,0.9-4.5,1.7-7.2,2.5c-2.6,0.8-5.1,1.2-7.3,1.2C403.1,212.8,400.6,211.8,398.7,210z M413.5,209.1
		c2.5-0.6,4.8-1.3,6.7-2c2-0.7,3.2-1.2,3.8-1.4v-14.7l-15.7,0.5c-3.3,0.2-5.7,1-7.2,2.5c-1.5,1.5-2.2,3.5-2.2,6v2
		c0,2.8,0.8,4.9,2.5,6.2c1.6,1.3,3.6,1.9,5.8,1.9C408.9,210.1,411,209.7,413.5,209.1z"/>
	<path class="st0" d="M441.6,209.3c-1.8-2-2.7-5.2-2.7-9.6l0.2-25.7h-6.6v-2l6.6-0.7l0.7-11.5h2.3v11.5h12.9v2.7h-12.9v25.7
		c0,3.8,0.7,6.3,2.1,7.6s3.1,2.1,5.2,2.2l5,0.5v2.2h-4.7C446.2,212.3,443.4,211.3,441.6,209.3z"/>
	<path class="st0" d="M461.4,162.2V157c0-0.7,0.3-1,1-1h1.9c0.6,0,0.9,0.3,0.9,1v5.2c0,0.7-0.3,1-0.9,1h-1.9
		C461.7,163.2,461.4,162.9,461.4,162.2z M461.7,171.3h3.2v41h-3.2V171.3z"/>
	<path class="st0" d="M470.3,171.3h3.2l15,38l15.3-38h3.2l-16.7,41h-3.5L470.3,171.3z"/>
	<path class="st0" d="M515.9,210.8c-2.3-1.3-4-3.5-5-6.5c-1-3-1.5-7.2-1.5-12.6c0-5.4,0.5-9.6,1.6-12.6c1.1-3,2.8-5.1,5.2-6.4
		c2.4-1.3,5.7-1.9,9.9-1.9c5.2,0,9.1,1,11.4,3c2.4,2,3.6,5.4,3.6,10.3c0,6.2-3.6,9.2-10.9,9.2h-17.6c0,4.3,0.4,7.6,1.1,10
		c0.7,2.4,2.1,4.1,4.1,5.2c2,1.1,4.8,1.6,8.6,1.6h13.9v1.9c-5,0.5-9.8,0.7-14.4,0.7C521.6,212.8,518.3,212.1,515.9,210.8z
		 M530.1,190.9c2.8,0,4.9-0.5,6.2-1.5c1.3-1,1.9-2.8,1.9-5.4c0-2.8-0.4-4.9-1.2-6.5c-0.8-1.5-2.1-2.6-3.8-3.3c-1.7-0.6-4.1-1-7.1-1
		c-3.6,0-6.3,0.5-8.2,1.5c-1.9,1-3.2,2.7-4,5.2c-0.8,2.5-1.2,6.1-1.2,10.8H530.1z"/>
</g>
<path class="st0" d="M13.3,71l67,67l-5.8,5.8c-7.2,7.2-18.9,7.2-26.1,0l-41-40.9c-0.7-0.7-1.3-1.3-1.8-2.1c-5.3-7.2-4.7-17.4,1.8-24
	L13.3,71z"/>
<path class="st2" d="M74.4,35.9l5.8,5.8l-53.9,54c-7.2,7.2-7.2,18.9,0,26.1L7.4,102.9c-0.7-0.7-1.3-1.3-1.8-2.1
	c-5.4-7.2-4.8-17.5,1.8-24l40.9-40.9C55.5,28.7,67.2,28.7,74.4,35.9z"/>
<path class="st0" d="M112.2,35.9l40.9,40.9c0.7,0.7,1.3,1.3,1.8,2.1c5.3,7.2,4.7,17.4-1.8,24l-5.8,5.8l-67-67l5.8-5.8
	C93.3,28.7,105,28.7,112.2,35.9z"/>
<path class="st2" d="M134.2,57.9l18.9,18.9c0.7,0.7,1.3,1.3,1.8,2.1c5.4,7.2,4.8,17.5-1.8,24l-40.9,40.9c-7.2,7.2-18.9,7.2-26.1,0
	l-5.8-5.8l53.9-54C141.4,76.8,141.4,65.1,134.2,57.9z"/>
</svg>
